<?xml version="1.0" standalone="no"?>
<!DOCTYPE svg PUBLIC "-//W3C//DTD SVG 20010904//EN"
 "http://www.w3.org/TR/2001/REC-SVG-20010904/DTD/svg10.dtd">
<svg version="1.0" xmlns="http://www.w3.org/2000/svg"
 width="700.000000pt" height="700.000000pt" viewBox="0 0 700.000000 700.000000"
 preserveAspectRatio="xMidYMid meet">
<metadata>
Created by potrace 1.11, written by Peter Selinger 2001-2013
</metadata>
<g transform="translate(0.000000,700.000000) scale(0.100000,-0.100000)"
fill="#000000" stroke="none">
<path d="M3260 5889 c-36 -21 -64 -43 -63 -48 2 -5 27 -47 56 -93 29 -46 82
-135 117 -200 71 -130 61 -125 152 -66 l57 38 -73 127 c-82 145 -169 283 -176
282 -3 0 -34 -18 -70 -40z"/>
<path d="M2426 5860 c-122 -170 -191 -331 -218 -510 -14 -87 -16 -225 -4 -292
3 -21 9 -55 12 -75 17 -114 93 -287 192 -440 l47 -73 93 0 c50 0 92 3 92 6 0
4 -17 48 -39 98 -36 84 -68 170 -76 206 -46 185 -53 248 -50 415 3 147 14 251
39 340 26 96 39 135 80 238 25 65 46 122 46 125 0 4 -41 7 -91 7 l-91 0 -32
-45z"/>
<path d="M4300 5895 c0 -6 16 -49 35 -95 32 -77 79 -214 91 -265 40 -169 53
-421 28 -570 -19 -119 -64 -270 -114 -385 -22 -52 -40 -97 -40 -102 0 -4 42
-8 93 -8 l92 0 52 83 c149 236 206 414 205 637 0 91 -5 138 -27 249 -10 53
-47 150 -88 231 -43 86 -133 229 -145 231 -40 7 -182 2 -182 -6z"/>
<path d="M3919 5848 c0 -12 -2 -30 -4 -38 -2 -8 -9 -35 -15 -60 -38 -160 -119
-351 -199 -469 -45 -66 -151 -178 -221 -234 -66 -52 -190 -123 -278 -159 -42
-17 -80 -34 -84 -37 -4 -3 16 -38 45 -78 l52 -71 80 32 c299 122 533 347 665
642 56 124 140 399 140 458 0 8 -19 16 -52 20 -29 4 -70 10 -90 13 -35 4 -38
3 -39 -19z"/>
<path d="M2903 5774 l-72 -45 54 -83 c30 -45 84 -137 121 -204 36 -67 70 -122
75 -122 12 0 127 69 134 81 4 5 2 15 -3 22 -5 7 -29 48 -52 92 -36 67 -179
305 -184 305 0 0 -33 -21 -73 -46z"/>
<path d="M1869 4627 c-113 -94 -323 -269 -465 -387 -142 -118 -270 -225 -284
-237 -14 -11 -135 -112 -270 -224 -135 -112 -251 -209 -258 -216 -8 -7 -30
-26 -50 -41 -21 -15 -43 -32 -50 -39 -7 -7 -33 -29 -58 -49 l-45 -37 28 -24
c89 -74 197 -115 313 -119 71 -3 98 1 165 24 102 34 137 59 348 240 94 81 282
242 416 357 134 116 285 245 335 288 50 44 105 91 121 105 17 15 58 51 93 80
34 30 62 58 62 63 0 5 -15 30 -34 56 -48 67 -110 196 -131 271 -10 34 -20 62
-24 62 -3 0 -99 -78 -212 -173z"/>
<path d="M4850 4728 c-23 -79 -95 -221 -141 -279 l-29 -37 43 -38 c40 -36 87
-77 212 -184 28 -23 79 -68 115 -100 36 -31 103 -90 150 -129 47 -40 99 -85
115 -99 50 -44 178 -154 235 -202 30 -25 126 -107 214 -182 173 -148 253 -197
361 -218 92 -19 198 -5 295 37 53 24 152 95 143 104 -9 8 -185 154 -251 207
-23 19 -51 43 -64 54 -43 36 -63 53 -118 98 -30 25 -57 47 -60 50 -3 3 -124
105 -270 225 -146 121 -267 222 -270 225 -6 6 -196 165 -325 270 -49 41 -92
77 -95 80 -12 13 -228 190 -233 190 -3 0 -15 -33 -27 -72z"/>
<path d="M2275 4324 c-39 -34 -168 -150 -211 -189 -12 -11 -37 -33 -55 -49
-29 -25 -191 -170 -225 -201 -6 -5 -44 -39 -84 -75 -40 -36 -78 -70 -84 -75
-6 -6 -54 -48 -106 -95 -52 -47 -97 -87 -100 -90 -4 -4 -157 -141 -196 -175
-6 -5 -49 -44 -95 -86 -46 -42 -100 -89 -119 -105 -19 -16 -46 -40 -60 -54
-14 -14 -88 -82 -165 -150 -77 -68 -160 -143 -185 -167 l-45 -43 25 -20 c14
-11 63 -39 109 -62 77 -38 91 -41 175 -44 145 -5 247 35 381 149 33 29 62 54
65 57 3 4 61 57 130 120 69 63 127 116 130 119 4 5 162 150 236 216 6 6 58 53
114 105 57 52 114 104 126 115 12 11 64 59 115 106 52 47 115 105 140 128 26
23 49 52 52 64 3 12 30 109 60 216 l55 194 -25 20 c-14 11 -35 30 -47 41 -12
12 -33 31 -47 43 l-25 22 -39 -35z"/>
<path d="M4578 4305 c-32 -30 -58 -59 -58 -66 0 -6 18 -86 41 -178 23 -91 43
-175 45 -185 8 -45 27 -92 41 -102 17 -14 93 -84 183 -168 36 -34 108 -99 160
-146 52 -47 120 -108 150 -136 30 -28 72 -66 94 -85 21 -19 52 -47 70 -64 72
-67 157 -145 256 -235 57 -52 118 -108 135 -124 144 -138 320 -199 479 -166
60 12 173 65 216 101 l25 21 -41 36 c-42 39 -177 161 -278 251 -34 30 -79 70
-101 90 -22 20 -63 56 -90 81 -28 25 -88 79 -135 120 -46 41 -132 118 -190
170 -134 120 -258 231 -330 294 -30 27 -62 56 -71 65 -9 9 -44 41 -79 71 -75
66 -75 66 -176 156 -147 133 -285 254 -287 254 -1 -1 -28 -25 -59 -55z"/>
<path d="M3337 4314 c-1 -1 -114 -5 -252 -8 -137 -4 -272 -9 -300 -11 -27 -2
-88 -7 -135 -10 -46 -3 -87 -8 -91 -13 -7 -7 -65 -200 -75 -250 -2 -13 -11
-42 -18 -65 -8 -23 -33 -112 -56 -197 -23 -85 -50 -184 -60 -220 -25 -89 -138
-542 -145 -582 -3 -17 -8 -34 -10 -38 -11 -18 -144 -639 -199 -930 -3 -14 -12
-61 -21 -105 -9 -44 -19 -100 -22 -124 -12 -96 -4 -89 -195 -186 -214 -109
-232 -124 -225 -183 3 -26 14 -53 28 -68 30 -32 36 -30 31 10 -4 33 -1 36 44
59 27 13 65 29 84 37 19 7 59 24 88 37 30 14 56 23 58 21 2 -3 -32 -50 -76
-107 -83 -107 -104 -152 -87 -186 18 -36 57 -65 88 -65 29 0 29 0 9 20 -36 36
-32 43 132 215 l67 70 -43 -125 c-45 -129 -49 -169 -21 -200 25 -28 71 -43
102 -35 19 5 23 9 13 13 -8 2 -23 11 -32 19 -20 18 -12 45 46 163 44 89 87
137 136 150 52 14 191 20 235 10 46 -10 57 -25 50 -67 -6 -39 14 -36 41 5 48
73 18 148 -76 190 -33 15 -59 30 -60 33 0 4 48 45 108 92 59 47 122 98 141
114 19 15 80 66 135 111 110 91 117 98 251 216 110 98 185 168 329 309 61 59
114 107 118 107 4 0 54 -46 112 -102 117 -116 150 -147 291 -273 55 -49 102
-92 105 -95 24 -27 515 -431 562 -462 22 -15 22 -16 -32 -41 -77 -35 -113 -75
-113 -126 0 -44 21 -84 53 -101 18 -10 19 -8 11 13 -14 35 7 70 47 78 35 7
148 4 220 -6 60 -9 104 -57 163 -179 27 -56 49 -107 49 -113 0 -7 -9 -18 -20
-25 -11 -7 -20 -18 -20 -25 0 -30 91 -4 114 32 24 36 20 66 -24 192 -22 64
-40 118 -40 122 0 6 14 -8 147 -158 67 -75 72 -83 61 -106 -6 -14 -15 -25 -20
-25 -4 0 -8 -4 -8 -9 0 -16 63 7 88 32 52 53 39 89 -88 250 -33 42 -59 77 -56
77 3 0 60 -23 128 -51 137 -57 162 -77 148 -115 -6 -16 -6 -24 1 -24 15 0 59
50 60 69 1 9 2 23 3 31 4 36 -25 68 -91 103 -37 19 -124 65 -192 100 -69 36
-125 71 -127 78 -2 14 -26 145 -64 344 -11 61 -23 126 -26 145 -3 19 -7 37 -9
40 -2 3 -6 25 -10 50 -4 25 -8 48 -11 51 -2 4 -6 23 -9 42 -4 20 -31 146 -61
279 -30 134 -57 254 -60 268 -3 14 -16 70 -30 125 -14 55 -26 107 -28 115 -2
9 -32 126 -66 260 -34 135 -63 252 -65 260 -7 33 -146 596 -151 612 -10 34
-93 40 -632 42 -243 1 -444 1 -445 0z"/>
<path d="M2230 3568 c-30 -28 -106 -99 -169 -157 -63 -58 -124 -115 -136 -126
-11 -11 -52 -49 -91 -85 -63 -60 -260 -242 -344 -320 -172 -158 -276 -255
-335 -310 -38 -36 -74 -69 -81 -75 -6 -5 -64 -60 -130 -122 -65 -61 -129 -120
-141 -131 -13 -11 -23 -22 -23 -24 0 -11 147 -77 201 -91 172 -44 359 13 510
155 25 24 101 95 169 158 68 63 153 143 189 176 120 112 138 129 192 178 l54
50 96 385 c53 212 96 387 95 388 0 1 -26 -21 -56 -49z"/>
<path d="M4670 3614 c0 -5 42 -179 94 -387 l93 -378 49 -45 c27 -25 74 -69
104 -97 50 -48 291 -272 330 -307 9 -8 48 -44 86 -80 128 -122 195 -162 317
-194 54 -14 173 -15 222 -2 83 22 194 73 202 92 4 10 -43 60 -117 124 -12 10
-74 68 -138 128 -64 60 -131 123 -148 138 -17 16 -80 74 -139 129 -59 55 -119
111 -134 124 -31 28 -260 242 -306 286 -53 50 -237 219 -259 238 -21 19 -67
62 -188 176 -38 35 -68 60 -68 55z"/>
<path d="M4894 2679 c20 -84 86 -390 91 -416 3 -18 14 -77 24 -130 11 -54 22
-110 25 -126 10 -55 19 -69 91 -138 89 -86 124 -113 195 -148 150 -76 340 -64
471 31 l43 31 -151 146 c-83 80 -288 281 -455 446 -168 165 -312 306 -322 314
-16 13 -17 12 -12 -10z"/>
<path d="M1944 2586 c-56 -56 -262 -258 -458 -451 -195 -192 -354 -354 -353
-359 5 -16 118 -75 174 -91 107 -31 254 -12 353 48 39 23 110 81 186 153 l52
49 26 135 c21 107 70 344 91 440 24 106 36 172 33 174 -1 2 -48 -43 -104 -98z"/>
<path d="M3515 1848 c0 -491 2 -546 17 -574 69 -127 248 -119 303 12 8 21 12
138 13 411 l0 382 -90 83 c-50 46 -96 88 -103 93 -6 6 -41 38 -76 73 l-65 63
1 -543z"/>
<path d="M3361 2310 c-41 -38 -108 -100 -149 -137 -42 -38 -81 -74 -89 -81
-10 -11 -13 -91 -13 -395 0 -365 1 -382 21 -423 28 -60 78 -89 150 -89 46 0
63 5 93 28 73 56 70 30 71 630 0 295 -2 537 -5 537 -3 0 -38 -32 -79 -70z"/>
<path d="M2872 1872 l-163 -136 3 -232 c3 -217 4 -234 24 -260 41 -55 70 -69
144 -69 65 0 71 2 104 34 20 19 41 50 47 68 10 31 17 718 8 727 -2 2 -77 -57
-167 -132z"/>
<path d="M3930 1654 c0 -353 1 -360 23 -398 32 -56 67 -79 131 -84 69 -6 124
23 156 81 22 38 23 51 24 259 l1 219 -30 27 c-16 15 -84 72 -150 126 -66 55
-128 106 -137 114 -17 14 -18 -3 -18 -344z"/>
</g>
</svg>
