<svg width="445" height="351" xmlns="http://www.w3.org/2000/svg"><g fill="#000" fill-rule="evenodd"><g fill-rule="nonzero"><path d="M335.39 288.16c5.084 4.849 9.254 8.868 9.712 9.277.985.942 21.879 21.652 46.898 2.395-.532-.515-36.663-36.238-68-66.832a1598.91 1598.91 0 0 1 11.38 55.16M255.001 332.136c0 6.546 5.376 11.864 12.022 11.864 6.604 0 11.977-5.318 11.977-11.864V303.07A932.2 932.2 0 0 1 255 283v49.136"/><path d="M324.675 66.152V66v.152m7.907 241.943c-8.973-50.87-18.972-93.46-27.282-125.138a3179.453 3179.453 0 0 0-15.653-63.164c7.283-4.797-139.065-2.218-133.83.919-32.154 108.383-44.4 187.384-44.4 187.384S89.58 319.38 86.461 320.83c-.168.089-6.786 2.926-3.59 9.837 0 0 1.344 3.38 4.767 4.014 0 0-3.14-4.632.482-6.337l19.273-8.117s-9.186 11.89-11.357 14.543c-.135.152-4.84 5.611 1.056 10.44 0 0 2.654 2.445 6.017 1.54 0 0-4.856-2.821-2.306-5.915l15.233-16.578s-4.357 13.292-5.657 16.458c-.074.198-2.986 6.773 4.044 9.656 0 0 3.274 1.585 6.209-.272 0 0-5.462-1.298-3.935-4.977l4.237-9.444s3.8-9.069 9.019-9.974l2.866-.44c11.34-1.704 15.987-.104 15.987-.104 4.374 1.492 1.357 7.226 1.357 7.226 3.844-1.146 4.948-5.205 4.948-5.205 2.443-7.468-5.128-10.771-5.325-10.864-3.68-1.704-6.32-2.882-6.32-2.882s44.64-33.973 78.514-68.929c33.874 34.953 78.546 68.929 78.546 68.929s-2.653 1.178-6.32 2.882c-.21.09-7.78 3.396-5.353 10.864 0 0 1.131 4.056 4.96 5.205 0 0-3.017-5.73 1.357-7.226 0 0 4.66-1.6 16.002.105l2.851.44c5.232.904 9.003 9.973 9.003 9.973l4.269 9.444c1.508 3.68-3.935 4.977-3.935 4.977 2.926 1.857 6.21.272 6.21.272 7.042-2.883 4.116-9.461 4.058-9.656-1.327-3.166-5.67-16.458-5.67-16.458l15.233 16.578c2.533 3.09-2.308 5.914-2.308 5.914 3.35.906 6.032-1.539 6.032-1.539 5.897-4.829 1.162-10.288 1.042-10.44-2.171-2.653-11.34-14.543-11.34-14.543l19.242 8.117c3.65 1.705.496 6.337.496 6.337 3.407-.633 4.767-4.014 4.767-4.014 3.212-6.909-3.407-9.745-3.606-9.837-3.084-1.45-24.934-12.734-24.934-12.734zM309 110.533c28.153 24.383 83.875 72.47 88.568 76.104 2.214 1.607 23.663 17.494 47.432-3.09-.905-.787-75.312-62.375-122.023-101.547-2.816 12.101-8.328 21.52-13.977 28.533"/><path d="M297.003 122.22a3908.827 3908.827 0 0 1 8.233 32.798c29.492 26.947 78.33 71.626 80.288 73.362 1.448 1.284 23.28 20.949 48.476.062-.966-.832-82.16-73.482-128.015-114.442a71.489 71.489 0 0 1-8.985 8.222M311.568 181.792a1508.818 1508.818 0 0 1 10.142 41.072c21.435 20.07 44.71 41.704 46.914 43.66 2.099 1.777 22.084 19.284 48.376 1.719-.785-.754-64.65-60.008-109-101.243 1.193 4.912 2.387 9.852 3.562 14.795M167 332.136c0 6.546 5.362 11.864 11.985 11.864 6.623 0 12.015-5.318 12.015-11.864V283c-8.773 7.595-17.07 14.451-24 20.07v29.066M122.967 223.071A1780.423 1780.423 0 0 1 137 167C92.749 208.159 28.801 267.505 28 268.26c26.227 17.525 46.162.06 48.241-1.716 2.199-1.954 25.37-23.48 46.714-43.47M59.37 228.386c1.971-1.74 51.418-47.095 80.815-73.964 2.739-10.082 5.703-20.51 8.815-31.232a73.471 73.471 0 0 1-10.276-9.19C92.973 154.988 11.97 227.609 11 228.442c25.169 20.886 46.936 1.223 48.382-.062M108.693 288.557c2.38-12.662 6.067-31.332 11.307-54.557-30.883 30.193-66.444 65.42-67 65.929 24.72 19.03 45.33-1.439 46.28-2.366.447-.39 4.493-4.256 9.404-9.006M225 331.132C225 337.7 230.361 343 236.99 343c6.617 0 12.01-5.3 12.01-11.868v-52.984c-7.95-6.993-16.174-14.518-24-22.148v75.15M47.445 186.638c4.713-3.636 60.386-51.707 88.555-76.09C130.336 103.52 124.838 94.1 122.054 82 75.317 121.166.94 182.76 0 183.547c23.784 20.584 45.233 4.697 47.449 3.09M196.001 331.135c0 6.567 5.395 11.865 11.999 11.865 6.62 0 12-5.298 12-11.865V256c-7.847 7.629-16.046 15.152-24 22.144v52.972"/></g><path d="M148.868 2.917h13.643c-4.691 10.384-8.075 19.98-10.152 28.79-1.754 7.483-2.631 15.468-2.631 23.954 0 16.364 4.26 33.193 12.783 50.488h-13.643c-6.946-9.847-11.825-18.754-14.636-26.72-2.811-7.968-4.216-16.32-4.216-25.057 0-9.06 1.477-17.67 4.43-25.835 2.955-8.164 7.762-16.704 14.422-25.62zM211.908.94c5.72 8.14 11.66 18.04 17.71 29.7l-10.23 6.6c-3.85-7.26-6.6-12.32-8.36-15.4-3.08-5.39-6.27-10.34-9.46-14.85l10.34-6.05zm42.9 4.18l12.76 2.09c-3.74 20.24-10.34 36.96-19.69 50.05-10.78 14.85-25.52 25.63-44.44 32.23l-7.7-10.67c17.49-6.16 31.13-15.51 40.81-28.27 8.58-11.44 14.74-26.62 18.26-45.43zm-68.53 3.85c5.72 8.14 11.66 18.15 17.82 30.25l-10.56 6.27c-2.64-5.28-5.39-10.34-8.14-14.96-3.19-5.5-6.38-10.56-9.57-15.07l10.45-6.49zm108.47-6.053c6.66 8.916 11.466 17.456 14.42 25.62 2.955 8.164 4.432 16.776 4.432 25.835 0 8.737-1.406 17.09-4.217 25.056-2.81 7.967-7.69 16.874-14.636 26.721h-13.643c8.523-17.295 12.784-34.124 12.784-50.488 0-8.486-.878-16.471-2.632-23.955-2.077-8.809-5.46-18.405-10.152-28.789h13.643z"/></g></svg>
